<?xml version="1.0" encoding="UTF-8" standalone="no"?>
<!-- Created with Inkscape (http://www.inkscape.org/) -->

<svg
   width="2262.6655"
   height="2263.8418"
   viewBox="0 0 598.66356 598.9748"
   version="1.1"
   id="svg1"
   inkscape:version="1.3.2 (091e20e, 2023-11-25)"
   sodipodi:docname="Reblocksv2.svg"
   inkscape:export-filename="../PNG/ReBlocks.png"
   inkscape:export-xdpi="96"
   inkscape:export-ydpi="96"
   xml:space="preserve"
   xmlns:inkscape="http://www.inkscape.org/namespaces/inkscape"
   xmlns:sodipodi="http://sodipodi.sourceforge.net/DTD/sodipodi-0.dtd"
   xmlns="http://www.w3.org/2000/svg"
   xmlns:svg="http://www.w3.org/2000/svg"
   xmlns:rdf="http://www.w3.org/1999/02/22-rdf-syntax-ns#"
   xmlns:cc="http://creativecommons.org/ns#"
   xmlns:dc="http://purl.org/dc/elements/1.1/"><sodipodi:namedview
     id="namedview1"
     pagecolor="#ffffff"
     bordercolor="#000000"
     borderopacity="0.25"
     inkscape:showpageshadow="2"
     inkscape:pageopacity="0.0"
     inkscape:pagecheckerboard="true"
     inkscape:deskcolor="#d1d1d1"
     inkscape:document-units="px"
     inkscape:zoom="0.054905179"
     inkscape:cx="582.82298"
     inkscape:cy="1165.646"
     inkscape:window-width="1312"
     inkscape:window-height="449"
     inkscape:window-x="0"
     inkscape:window-y="25"
     inkscape:window-maximized="0"
     inkscape:current-layer="layer1"
     showguides="true"><sodipodi:guide
       position="247.22133,413.33217"
       orientation="0,-1"
       id="guide1"
       inkscape:locked="false" /><sodipodi:guide
       position="74.032387,203.98541"
       orientation="1,0"
       id="guide2"
       inkscape:locked="false" /><sodipodi:guide
       position="420.41403,203.98541"
       orientation="1,0"
       id="guide3"
       inkscape:locked="false" /><sodipodi:guide
       position="247.22138,56.236587"
       orientation="0,-1"
       id="guide4"
       inkscape:locked="false" /><sodipodi:guide
       position="247.04776,499.36771"
       orientation="0,-1"
       id="guide5"
       inkscape:locked="false" /><sodipodi:guide
       position="242.6278,-29.798948"
       orientation="0,-1"
       id="guide6"
       inkscape:locked="false" /><sodipodi:guide
       position="511.80653,242.22636"
       orientation="1,0"
       id="guide7"
       inkscape:locked="false" /><sodipodi:guide
       position="-17.360117,230.84003"
       orientation="1,0"
       id="guide8"
       inkscape:locked="false" /></sodipodi:namedview><defs
     id="defs1" /><g
     inkscape:label="Layer 1"
     inkscape:groupmode="layer"
     id="layer1"
     transform="translate(-17.360117,29.798948)"><path
       id="rect15"
       style="opacity:1;fill:#ff0000;stroke:none;stroke-width:1.66435"
       d="M 17.360117,-29.798948 V 501.4022 H 409.96804 v 67.77364 H 616.02367 V 35.306629 H 221.09889 v -65.105577 z" /><path
       id="path24"
       style="font-variation-settings:normal;opacity:1;vector-effect:none;fill:#ececec;fill-opacity:1;stroke:none;stroke-width:0.414766;stroke-linecap:butt;stroke-linejoin:miter;stroke-miterlimit:4;stroke-dasharray:none;stroke-dashoffset:0;stroke-opacity:1;-inkscape-stroke:none;paint-order:stroke fill markers;stop-color:#000000;stop-opacity:1"
       inkscape:label="Symbol"
       d="m 270.23815,91.140693 -8.82375,27.874267 c -9.61139,4.15622 -19.22323,8.31208 -28.83338,12.47107 -10.19726,-2.14731 -20.42039,-4.63456 -30.75368,-5.88077 -1.63125,1.83553 -42.90465,65.30555 -42.89299,65.96134 1.90159,4.65581 5.1668,8.66088 7.63674,13.01781 l 150.12055,52.7265 150.12055,-52.7265 c 2.47002,-4.35693 5.73567,-8.36198 7.63726,-13.01781 0.008,-0.6557 -41.26226,-64.12581 -42.8935,-65.96134 -10.3333,1.24621 -20.55634,3.73346 -30.75368,5.88077 -9.61023,-4.15899 -19.22147,-8.31485 -28.83286,-12.47107 l -8.82427,-27.874267 h -8.49406 -75.87805 z M 178.00347,223.76154 c -0.18627,-0.0558 -0.55976,0.21954 -0.57361,0.31316 -1.80821,14.74232 -5.34179,44.23709 -5.34179,44.23709 l 9.14725,39.5397 69.20145,31.43633 66.25436,-24.77369 66.25487,24.77369 69.20146,-31.43633 9.14724,-39.5397 c 0,0 -3.53358,-29.49477 -5.34179,-44.23709 -0.0163,-0.12559 -0.67696,-0.58038 -0.67696,-0.12041 -45.30224,16.10206 -92.55789,31.69649 -138.58482,47.57901 -46.02678,-15.88252 -93.28241,-31.47695 -138.58482,-47.57901 0,-0.11474 -0.0411,-0.17225 -0.10284,-0.19275 z m 34.80408,35.2397 c 21.73495,7.49674 43.64782,14.94174 65.55982,22.38572 a 35.281789,35.272028 0 0 1 -1.65778,6.74119 35.281789,35.272028 0 0 1 -45.31816,20.87004 35.281789,35.272028 0 0 1 -20.87573,-45.30524 35.281789,35.272028 0 0 1 2.29185,-4.69171 z m 207.76871,0 a 35.281789,35.272028 0 0 1 2.29185,4.69171 35.281789,35.272028 0 0 1 -20.87625,45.30524 35.281789,35.272028 0 0 1 -45.31816,-20.87004 35.281789,35.272028 0 0 1 -1.65778,-6.74119 c 21.912,-7.44398 43.82548,-14.88899 65.56034,-22.38572 z m -260.45852,25.02432 -16.61759,16.46256 24.89512,87.27219 78.68409,32.26676 -4.23385,-67.89043 -74.61922,-34.71519 z m 313.14781,0 -8.10804,33.39589 -74.61921,34.71519 -4.23385,67.89043 78.68357,-32.26676 24.89563,-87.27219 z m -156.57391,44.95229 -59.00363,23.34586 3.58118,73.33971 55.42245,22.57278 55.42246,-22.57278 3.58169,-73.33971 z" /></g><metadata
     id="metadata3"><rdf:RDF><cc:Work
         rdf:about=""><dc:creator><cc:Agent><dc:title>A. Irsyad</dc:title></cc:Agent></dc:creator><dc:description>Created for Redot Engine</dc:description></cc:Work></rdf:RDF></metadata></svg>
